HIERARCHY
ROOT Hips
{
	OFFSET 0.000000 0.000000 0.000000
	CHANNELS 6 Xposition Yposition Zposition Xrotation Yrotation Zrotation
	JOINT LeftUpLeg_virtual
	{
		OFFSET 0.000000 0.000000 0.000000
		CHANNELS 3 Xrotation Yrotation Zrotation
		JOINT LeftUpLeg
		{
			OFFSET 13.026900 -6.336304 -1.092800
			CHANNELS 3 Xrotation Yrotation Zrotation
			JOINT LeftLeg
			{
				OFFSET 0.524474 -46.096886 9.782700
				CHANNELS 3 Xrotation Yrotation Zrotation
				JOINT LeftFoot
				{
					OFFSET -0.524474 -53.427422 -12.948200
					CHANNELS 3 Xrotation Yrotation Zrotation
					JOINT LeftToeBase
					{
						OFFSET 0.192200 -14.009700 16.364100
						CHANNELS 3 Xrotation Yrotation Zrotation
						JOINT LeftToe_End
						{
							OFFSET -1.784700 -0.561700 9.474800
							CHANNELS 3 Xrotation Yrotation Zrotation
							End Site
							{
								OFFSET 0 0 0
							}
						}
					}
				}
			}
		}
	}
	JOINT RightUpLeg_virtual
	{
		OFFSET 0.000000 0.000000 0.000000
		CHANNELS 3 Xrotation Yrotation Zrotation
		JOINT RightUpLeg
		{
			OFFSET -12.883000 -6.336304 -1.092800
			CHANNELS 3 Xrotation Yrotation Zrotation
			JOINT RightLeg
			{
				OFFSET -0.524587 -46.096825 9.782800
				CHANNELS 3 Xrotation Yrotation Zrotation
				JOINT RightFoot
				{
					OFFSET 0.524587 -53.427383 -12.948300
					CHANNELS 3 Xrotation Yrotation Zrotation
					JOINT RightToeBase
					{
						OFFSET -0.192200 -14.009700 16.364100
						CHANNELS 3 Xrotation Yrotation Zrotation
						JOINT RightToe_End
						{
							OFFSET 1.784700 -0.561700 9.474800
							CHANNELS 3 Xrotation Yrotation Zrotation
							End Site
							{
								OFFSET 0 0 0
							}
						}
					}
				}
			}
		}
	}
	JOINT Spine_virtual
	{
		OFFSET 0.000000 0.000000 0.000000
		CHANNELS 3 Xrotation Yrotation Zrotation
		JOINT Spine
		{
			OFFSET 0.072000 7.257294 -0.789700
			CHANNELS 3 Xrotation Yrotation Zrotation
			JOINT Spine1
			{
				OFFSET 0.000000 12.508769 -0.658067
				CHANNELS 3 Xrotation Yrotation Zrotation
				JOINT Spine1_split
				{
					OFFSET 0.000000 12.508769 -0.658067
					CHANNELS 3 Xrotation Yrotation Zrotation
					JOINT Spine2
					{
						OFFSET 0.000000 12.508769 -0.658067
						CHANNELS 3 Xrotation Yrotation Zrotation
						JOINT Neck_virtual
						{
							OFFSET 0.000000 0.000000 0.000000
							CHANNELS 3 Xrotation Yrotation Zrotation
							JOINT Neck
							{
								OFFSET 0.000000 14.033295 7.520400
								CHANNELS 3 Xrotation Yrotation Zrotation
								JOINT Head
								{
									OFFSET 0.000000 8.198502 5.703100
									CHANNELS 3 Xrotation Yrotation Zrotation
									JOINT HeadTop_End
									{
										OFFSET 0.000000 17.760803 13.332701
										CHANNELS 3 Xrotation Yrotation Zrotation
										End Site
										{
											OFFSET 0 0 0
										}
									}
								}
							}
						}
						JOINT LeftShoulder_virtual
						{
							OFFSET 0.000000 0.000000 0.000000
							CHANNELS 3 Xrotation Yrotation Zrotation
							JOINT LeftShoulder
							{
								OFFSET 6.292450 5.785301 -0.669000
								CHANNELS 3 Xrotation Yrotation Zrotation
								JOINT LeftShoulder_split
								{
									OFFSET 6.292450 5.785301 -0.669000
									CHANNELS 3 Xrotation Yrotation Zrotation
									JOINT LeftArm
									{
										OFFSET 13.907140 -6.093903 1.965100
										CHANNELS 3 Xrotation Yrotation Zrotation
										JOINT LeftForeArm
										{
											OFFSET 34.140198 0.000000 0.000000
											CHANNELS 3 Xrotation Yrotation Zrotation
											JOINT LeftHand
											{
												OFFSET 40.960209 0.000000 0.000000
												CHANNELS 3 Xrotation Yrotation Zrotation
												End Site
												{
													OFFSET 0 0 0
												}
											}
										}
									}
								}
							}
						}
						JOINT RightShoulder_virtual
						{
							OFFSET 0.000000 0.000000 0.000000
							CHANNELS 3 Xrotation Yrotation Zrotation
							JOINT RightShoulder
							{
								OFFSET -6.292450 5.785301 -0.669000
								CHANNELS 3 Xrotation Yrotation Zrotation
								JOINT RightShoulder_split
								{
									OFFSET -6.292450 5.785301 -0.669000
									CHANNELS 3 Xrotation Yrotation Zrotation
									JOINT RightArm
									{
										OFFSET -13.907140 -6.093903 1.965100
										CHANNELS 3 Xrotation Yrotation Zrotation
										JOINT RightForeArm
										{
											OFFSET -34.140198 0.000000 0.000000
											CHANNELS 3 Xrotation Yrotation Zrotation
											JOINT RightHand
											{
												OFFSET -40.960209 0.000000 0.000000
												CHANNELS 3 Xrotation Yrotation Zrotation
												End Site
												{
													OFFSET 0 0 0
												}
											}
										}
									}
								}
							}
						}
					}
				}
			}
		}
	}
}
MOTION
Frames: 8
Frame Time: 0.03333333
85.740692 88.360275 224.877396 0.000000 0.000000 0.000000 171.935478 21.923357 -154.792823 -74.976257 -11.906904 29.845563 88.241946 -1.234896 -27.748895 -5.403689 9.052311 1.754376 -56.944131 -13.451923 2.090834 0.000000 0.000000 0.000000 172.013451 40.589270 -160.968530 -76.312775 -5.065074 -42.646516 75.936916 8.184920 -10.774808 -21.608589 -21.869642 42.451361 -19.061378 5.035560 -18.155061 0.000000 0.000000 0.000000 155.898713 46.262203 -141.681018 21.964941 15.135937 20.121058 1.417937 8.967194 7.090968 0.037309 6.273246 -0.818635 0.000000 0.000000 0.000000 8.807181 11.900162 3.513689 -0.526787 26.204431 25.655536 -149.874827 -54.273902 -146.817812 0.000000 0.000000 0.000000 26.028951 9.589605 6.157537 14.944408 -10.308028 27.178708 -31.422429 -5.506686 -4.221402 -10.529458 -62.301564 -9.488825 24.053706 11.849419 6.634004 0.000000 0.000000 0.000000 26.442473 10.663118 -4.250069 -7.531257 -2.340427 -10.809801 -23.799654 -26.906250 17.342455 -65.325582 15.451797 19.143448 27.969396 42.204955 4.654182 0.000000 0.000000 0.000000 
94.468567 80.898499 236.132996 0.000000 0.000000 0.000000 -156.413094 -0.541371 -168.164175 -84.041619 -10.235728 27.274892 80.504933 -2.721022 -22.920498 -0.681181 8.327007 -1.244209 -50.979408 -14.533239 3.932389 0.000000 0.000000 0.000000 -160.895174 11.002306 -177.886075 -83.944726 -0.403147 -34.341310 73.975648 6.366443 -9.711949 -20.214169 -17.273185 43.924489 -18.458363 3.787698 -19.597913 0.000000 0.000000 0.000000 -159.902925 30.002719 -176.318383 20.665890 15.200120 16.800028 0.107884 10.214300 8.081090 0.338442 7.222531 -0.938263 0.000000 0.000000 0.000000 7.954434 13.604084 3.498742 -3.877837 22.051583 26.259641 -158.254745 -48.018911 -163.336201 0.000000 0.000000 0.000000 27.222311 11.594931 8.117950 15.021041 -11.998589 26.929079 -32.015293 -2.304870 -6.398816 -8.283501 -57.073686 -4.666042 18.458890 1.012528 6.716531 0.000000 0.000000 0.000000 28.541515 11.770686 -5.059963 -6.567211 3.924168 -9.295107 -25.581753 -22.208434 25.688189 -57.146837 11.711941 12.881364 37.958537 59.090391 -4.625811 0.000000 0.000000 0.000000 
103.546539 73.715988 249.134552 0.000000 0.000000 0.000000 -141.225472 -10.041019 -173.826866 -94.590340 -9.725227 25.199297 76.221926 -7.948776 -16.220262 10.075522 4.670232 -5.019596 -45.538391 -14.139257 4.116752 0.000000 0.000000 0.000000 -148.006019 -4.607369 178.166031 -93.267162 3.874382 -26.136499 69.280549 4.371625 -8.005602 -14.637381 -9.233552 45.956064 -16.252104 2.158454 -20.313828 0.000000 0.000000 0.000000 -141.362923 11.835697 172.872935 20.425650 13.915428 14.500078 -1.133004 10.146940 8.285892 0.353281 6.692761 -1.016923 0.000000 0.000000 0.000000 6.400240 14.137071 3.754087 -6.666000 19.685978 27.512040 -157.861449 -46.427562 -174.662567 0.000000 0.000000 0.000000 28.608432 12.029339 9.079522 14.648681 -12.182175 24.358174 -34.612363 2.212979 -7.988923 -8.746001 -48.186472 -2.040268 15.778135 -15.052642 8.218674 0.000000 0.000000 0.000000 28.927825 11.611214 -5.944322 -4.314393 12.894386 -8.015533 -26.649038 -19.661673 34.644109 -50.232841 6.497231 6.776078 52.324775 74.048178 -17.933218 0.000000 0.000000 0.000000 
112.812447 66.135696 262.531250 0.000000 0.000000 0.000000 -133.775457 -11.462782 -179.557614 -103.854973 -9.744866 23.597373 76.966342 -15.824020 -8.326706 21.949033 -1.242866 -6.611774 -39.294403 -12.867828 3.000926 0.000000 0.000000 0.000000 -138.875176 -11.938702 175.680962 -102.454279 7.052391 -18.815773 64.012396 1.720220 -5.572497 -8.243489 0.233298 45.616583 -11.123753 0.215148 -20.765529 0.000000 0.000000 0.000000 -132.311242 -0.728345 170.160312 21.730954 11.305703 13.511053 -2.360644 8.837531 7.703527 0.188533 4.959900 -0.876191 0.000000 0.000000 0.000000 3.829401 13.459829 3.968085 -8.579430 19.349368 29.015053 -151.874994 -50.160096 176.949451 0.000000 0.000000 0.000000 30.083271 10.904189 8.852636 14.030081 -10.893324 19.272900 -39.336535 7.200497 -7.963056 -8.529449 -38.790055 -0.376773 18.953196 -33.651625 12.994332 0.000000 0.000000 0.000000 27.580497 10.276426 -6.822383 -1.296618 22.717819 -7.192052 -22.066384 -21.526437 41.639408 -46.139468 1.454987 1.944894 107.977525 84.935192 -72.532183 0.000000 0.000000 0.000000 
121.164986 57.819210 275.711151 0.000000 0.000000 0.000000 -129.569945 -10.068867 174.714367 -109.435825 -9.537698 22.010898 81.588222 -22.432856 -0.354197 28.480484 -5.958078 -5.611771 -32.512397 -10.780054 0.247174 0.000000 0.000000 0.000000 -132.003487 -13.431940 172.681799 -111.036753 9.553528 -11.874284 62.564137 -1.425295 -2.215030 -3.083626 8.580703 41.824592 -5.941451 -1.277099 -21.474830 0.000000 0.000000 0.000000 -127.593179 -7.097976 169.845809 24.502356 8.014606 13.874798 -3.604041 6.701055 6.466634 -0.251559 3.244000 -0.610987 0.000000 0.000000 0.000000 0.418563 11.712917 3.763847 -9.711758 20.420799 30.516612 -140.152804 -58.515467 173.776186 0.000000 0.000000 0.000000 30.811161 8.539890 7.763395 13.395572 -9.047543 12.161972 -44.688384 10.987334 -7.021586 -5.839219 -32.782169 0.478624 29.696952 -47.694480 22.682047 0.000000 0.000000 0.000000 25.318033 8.203428 -7.649625 1.846248 31.724811 -6.955186 -11.142910 -24.304692 43.710202 -44.246976 -1.799421 -0.691775 -169.465326 79.917865 -154.391358 0.000000 0.000000 0.000000 
129.079636 50.177410 288.372284 0.000000 0.000000 0.000000 -126.755347 -7.288496 169.506075 -109.287282 -8.619440 21.138472 88.096422 -25.801528 7.215329 27.715963 -8.135700 -4.936852 -29.956964 -8.275718 -3.432838 0.000000 0.000000 0.000000 -126.288804 -11.765340 169.164730 -118.976185 11.879845 -4.879752 69.337922 -4.119227 2.138147 0.995083 14.837573 35.722986 -3.311428 -1.931605 -22.727297 0.000000 0.000000 0.000000 -124.326874 -10.257486 170.447535 27.786569 4.704110 14.884529 -4.971584 4.363564 4.943502 -0.471222 2.204589 -0.284999 0.000000 0.000000 0.000000 -3.480316 9.311955 2.858404 -10.362638 21.672535 31.793445 -117.615803 -68.170028 -176.502771 0.000000 0.000000 0.000000 30.327474 5.679625 6.279781 12.809346 -7.405264 3.940848 -49.189342 12.826037 -5.668760 2.248112 -31.180524 2.241509 43.341290 -54.027630 33.331972 0.000000 0.000000 0.000000 23.001388 5.953166 -8.321971 4.884242 38.772296 -7.093143 -0.859002 -23.500780 38.408042 -43.736457 -2.417684 -0.781705 -159.843502 73.915009 -163.589670 0.000000 0.000000 0.000000 
136.776398 44.421482 300.185760 0.000000 0.000000 0.000000 -124.379425 -5.208602 165.989074 -103.433844 -6.898305 22.140576 93.419646 -26.674197 13.155286 22.565417 -8.124671 -6.972801 -33.862852 -5.580624 -6.304936 0.000000 0.000000 0.000000 -122.025646 -10.684955 165.711263 -126.450393 14.746237 2.473366 84.583225 -3.832955 6.564631 4.685318 19.162681 28.471556 -4.992666 -1.513762 -24.132105 0.000000 0.000000 0.000000 -121.846750 -11.884919 171.675316 30.619786 1.994789 15.477111 -6.461384 2.254884 3.442039 -0.269792 2.317540 -0.024841 0.000000 0.000000 0.000000 -6.979494 6.933335 1.257389 -10.674387 22.097228 32.615253 -78.179172 -72.877763 -146.112267 0.000000 0.000000 0.000000 28.438177 3.014493 5.026204 11.954348 -6.827574 -3.772897 -50.050895 12.436385 -3.675729 15.262307 -32.034714 6.507933 50.883297 -55.644738 37.113230 0.000000 0.000000 0.000000 20.829452 3.892297 -8.523703 7.930980 42.436771 -7.665649 3.308527 -20.999319 25.949294 -42.974717 -0.731575 1.851151 -163.102622 73.054897 -159.866889 0.000000 0.000000 0.000000 
143.860107 41.630493 309.906464 0.000000 0.000000 0.000000 -122.325628 -5.798837 165.509062 -94.490872 -4.564613 25.606721 95.464489 -26.033546 15.709336 18.061976 -6.267443 -10.856104 -41.544045 -2.961744 -7.366037 0.000000 0.000000 0.000000 -119.344169 -11.172685 163.976654 -132.998646 17.751689 10.364779 101.933361 -0.738575 8.794064 8.283356 21.474533 20.988816 -10.520736 -0.235893 -24.965646 0.000000 0.000000 0.000000 -119.378361 -11.129078 172.501782 31.530749 0.053691 14.979534 -8.080786 0.519592 2.120247 0.008990 2.997161 -0.177182 0.000000 0.000000 0.000000 -9.063151 4.888346 -0.794711 -10.878155 21.128946 33.059529 -45.365379 -69.307541 -117.357540 0.000000 0.000000 0.000000 25.155909 0.965844 4.443900 10.315518 -7.367349 -9.325087 -45.514294 10.982800 -2.470036 29.865467 -31.213350 12.682748 52.432029 -58.460443 35.318925 0.000000 0.000000 0.000000 18.875556 2.081377 -8.294440 11.246244 42.559745 -8.979266 0.593563 -16.766946 12.337375 -42.421953 1.831044 5.916904 -177.589399 76.476344 -144.905769 0.000000 0.000000 0.000000 
